{
	"asset":{
		"version":"2.0",
		"generator":"Created using the official Cinema 4D glTF Exporter 1.000x284978"
	},
	"scenes":[{
		"nodes":[0]
	}],
	"nodes":[{
		"name":"oooo",
		"translation":[0.0,
		-0.0002952343493234366,
		-9.521163179118119e-18],
		"rotation":[0.0,
		0.0,
		0.0,
		-1.0],
		"scale":[1.0,
		1.0,
		1.0],
		"children":[1,
		2,
		3,
		4]
	},
	{
		"name":"1",
		"translation":[0.00015222508227452636,
		0.16006584465503694,
		-2.2005250089273619e-18],
		"rotation":[0.7071067690849304,
		0.0,
		0.0,
		-0.7071067690849304],
		"scale":[1.0,
		1.0,
		1.0],
		"mesh":0
	},
	{
		"name":"2",
		"translation":[-0.15389974415302277,
		-0.00006602497160201892,
		6.601575026782085e-18],
		"rotation":[0.0,
		0.0,
		0.0,
		-1.0],
		"scale":[1.0,
		1.0,
		1.0],
		"mesh":1
	},
	{
		"name":"3",
		"translation":[0.15478667616844178,
		0.00014373965677805245,
		-2.2005250089273619e-18],
		"rotation":[0.0,
		0.0,
		0.0,
		-1.0],
		"scale":[1.0,
		1.0,
		1.0],
		"mesh":2
	},
	{
		"name":"4",
		"translation":[0.0003180193598382175,
		-0.16100899875164033,
		-1.0211528945535488e-17],
		"rotation":[0.7071067690849304,
		0.0,
		0.0,
		-0.7071067690849304],
		"scale":[1.0,
		1.0,
		1.0],
		"mesh":3
	}],
	"meshes":[{
		"name":"1",
		"primitives":[{
			"attributes":{
				"POSITION":1
			},
			"indices":0
		}]
	},
	{
		"name":"2",
		"primitives":[{
			"attributes":{
				"POSITION":3
			},
			"indices":2
		}]
	},
	{
		"name":"3",
		"primitives":[{
			"attributes":{
				"POSITION":5
			},
			"indices":4
		}]
	},
	{
		"name":"4",
		"primitives":[{
			"attributes":{
				"POSITION":7
			},
			"indices":6
		}]
	}],
	"accessors":[{
		"bufferView":0,
		"type":"SCALAR",
		"componentType":5123,
		"min":[0],
		"count":3072,
		"byteOffset":0,
		"max":[511]
	},
	{
		"bufferView":1,
		"type":"VEC3",
		"componentType":5126,
		"min":[-0.11025000363588333,
		-0.03500000014901161,
		-0.11025000363588333],
		"count":512,
		"byteOffset":0,
		"max":[0.11025000363588333,
		0.03500000014901161,
		0.11025000363588333]
	},
	{
		"bufferView":2,
		"type":"SCALAR",
		"componentType":5123,
		"min":[0],
		"count":5208,
		"byteOffset":0,
		"max":[867]
	},
	{
		"bufferView":3,
		"type":"VEC3",
		"componentType":5126,
		"min":[-0.11041621118783951,
		-0.10957891494035721,
		-0.03493953496217728],
		"count":868,
		"byteOffset":0,
		"max":[0.11041621118783951,
		0.10957891494035721,
		0.03493953496217728]
	},
	{
		"bufferView":4,
		"type":"SCALAR",
		"componentType":5123,
		"min":[0],
		"count":4536,
		"byteOffset":0,
		"max":[755]
	},
	{
		"bufferView":5,
		"type":"VEC3",
		"componentType":5126,
		"min":[-0.11025000363588333,
		-0.11025000363588333,
		-0.03430783003568649],
		"count":756,
		"byteOffset":0,
		"max":[0.11025000363588333,
		0.11025000363588333,
		0.03430783003568649]
	},
	{
		"bufferView":6,
		"type":"SCALAR",
		"componentType":5123,
		"min":[0],
		"count":4104,
		"byteOffset":0,
		"max":[683]
	},
	{
		"bufferView":7,
		"type":"VEC3",
		"componentType":5126,
		"min":[-0.11005392670631409,
		-0.03500000014901161,
		-0.11005392670631409],
		"count":684,
		"byteOffset":0,
		"max":[0.11005392670631409,
		0.03500000014901161,
		0.11005392670631409]
	}],
	"bufferViews":[{
		"buffer":0,
		"byteOffset":0,
		"target":34963,
		"byteLength":6144
	},
	{
		"buffer":0,
		"byteOffset":6144,
		"target":34962,
		"byteLength":6144
	},
	{
		"buffer":1,
		"byteOffset":0,
		"target":34963,
		"byteLength":10416
	},
	{
		"buffer":1,
		"byteOffset":10416,
		"target":34962,
		"byteLength":10416
	},
	{
		"buffer":2,
		"byteOffset":0,
		"target":34963,
		"byteLength":9072
	},
	{
		"buffer":2,
		"byteOffset":9072,
		"target":34962,
		"byteLength":9072
	},
	{
		"buffer":3,
		"byteOffset":0,
		"target":34963,
		"byteLength":8208
	},
	{
		"buffer":3,
		"byteOffset":8208,
		"target":34962,
		"byteLength":8208
	}],
	"buffers":[{
		"uri":"data:application/octet-stream;base64,",
		"byteLength":12288
	},
	{
		"uri":"data:application/octet-stream;base64,",
		"byteLength":20832
	},
	{
		"uri":"data:application/octet-stream;base64,",
		"byteLength":18144
	},
	{
		"uri":"data:application/octet-stream;base64,",
		"byteLength":16416
	}]
}