{
	"asset":{
		"version":"2.0",
		"generator":"Created using the official Cinema 4D glTF Exporter 1.000x284978"
	},
	"scenes":[{
		"nodes":[0]
	}],
	"nodes":[{
		"name":"1",
		"mesh":0
	}],
	"meshes":[{
		"name":"1",
		"primitives":[{
			"attributes":{
				"POSITION":1,
				"NORMAL":2,
				"TEXCOORD_0":3
			},
			"indices":0
		}]
	}],
	"accessors":[{
		"bufferView":0,
		"type":"SCALAR",
		"componentType":5123,
		"count":16920,
		"byteOffset":0,
		"min":[0],
		"max":[3189]
	},
	{
		"bufferView":1,
		"type":"VEC3",
		"componentType":5126,
		"count":3190,
		"byteOffset":0,
		"min":[-0.4588121771812439,
		-0.1105855405330658,
		-0.03500000014901161],
		"max":[0.45861607789993288,
		0.10991445928812027,
		0.03500000014901161]
	},
	{
		"bufferView":1,
		"type":"VEC3",
		"componentType":5126,
		"count":3190,
		"byteOffset":12,
		"min":[-1.0,
		-1.0,
		-0.9999830722808838],
		"max":[1.0,
		1.0,
		0.9999830722808838]
	},
	{
		"bufferView":1,
		"type":"VEC2",
		"componentType":5126,
		"count":3190,
		"byteOffset":24,
		"min":[0.0,
		0.0],
		"max":[1.0,
		1.0]
	}],
	"bufferViews":[{
		"buffer":0,
		"byteOffset":0,
		"byteLength":33840,
		"target":34963
	},
	{
		"buffer":0,
		"byteOffset":33840,
		"byteLength":102080,
		"target":34962,
		"byteStride":32
	}],
	"buffers":[{
		"uri":"data:application/octet-stream;base64,",
		"byteLength":135920
	}]
}